# xmcd CD database file
#
# Track frame offsets:
#	150
#	14849
#	23984
#	34643
#	49800
#	62301
#	74465
#	89630
#	102615
#	114664
#	125412
#	140283
#	154708
#	165971
#	179405
#	192002
#
# Disc length: 2768 seconds
#
# Revision: 0
# Processed by: cddbd v1.5.1PL0 Copyright (c) Steve Scherf et al.
# Submitted via: CDex 1.51
#
DISCID=da0ace10
DTITLE=Swamp Things - Seafood Shuffle
DYEAR=2003
DGENRE=Blues
TTITLE0=Just Don't Care
TTITLE1=Wild One
TTITLE2=Everybody's Trying To Be My Baby
TTITLE3=You Never Can Tell
TTITLE4=Red Hot
TTITLE5=Rip It Up
TTITLE6=Matchbox
TTITLE7=Move It On Over
TTITLE8=Wine Spo-Dee-O-Dee
TTITLE9=Honey Don't
TTITLE10=Crazy Arms
TTITLE11=Jump, Jive And Wail
TTITLE12=Call Me Shorty
TTITLE13=Your True Love
TTITLE14=Down The Road Apiece
TTITLE15=Slip, Slip, Slippin' In
EXTD=YEAR: 2003
EXTT0=
EXTT1=
EXTT2=
EXTT3=
EXTT4=
EXTT5=
EXTT6=
EXTT7=
EXTT8=
EXTT9=
EXTT10=
EXTT11=
EXTT12=
EXTT13=
EXTT14=
EXTT15=
PLAYORDER=
